<svg width="140" height="24" viewBox="0 0 140 24" fill="none" xmlns="http://www.w3.org/2000/svg">
<g clip-path="url(#clip0_1_2)">
<path fill-rule="evenodd" clip-rule="evenodd" d="M11.4593 13.286C10.6813 13.9543 10.6947 15.8244 10.7081 17.9915V18.6059L10.7148 18.8421C10.7215 20.8877 10.7483 22.643 11.2312 23.4262C11.3855 23.6894 11.6873 23.8785 12.0897 23.9932C12.1903 24 12.2909 24 12.3983 24C13.3842 24 14.3433 23.8785 15.2622 23.6489C15.6377 23.4667 15.9127 23.2439 16.0066 23.0143C16.067 22.8658 16.0938 22.5958 16.0938 22.238C16.0938 20.8202 15.678 18.1063 15.4768 16.7966L15.3762 16.1147L15.356 15.9797L15.3292 15.7771C15.1615 14.6159 14.8731 13.3602 12.7738 13.0362C12.1903 12.9417 11.7611 13.0294 11.4593 13.286ZM7.73687 22.0759C7.81065 22.6228 7.91796 23.0346 8.06552 23.3046C8.28014 23.3902 8.49924 23.4712 8.72281 23.5477C8.92402 23.3721 9.04474 22.8793 9.0045 21.6911C8.94414 19.9831 8.65574 17.7282 8.19966 17.7552C7.71005 17.7822 7.52225 20.3544 7.73687 22.0759ZM17.7102 17.843C17.1669 18.1198 17.3749 21.2658 17.945 22.2717C18.0053 22.373 18.126 22.3865 18.2602 22.3662C18.6894 22.1052 19.0986 21.8171 19.4876 21.5021C19.5345 21.4008 19.5748 21.2793 19.6016 21.124C19.7089 20.5772 18.4279 17.4987 17.7102 17.843ZM0.5 12.0775C0.5 15.9999 2.43833 19.47 5.40283 21.5899C5.48332 21.5021 5.54368 21.259 5.59063 21.0565L5.60404 20.9755L5.67111 20.692C5.91257 19.551 5.95951 18.4371 5.82537 17.1206C5.74489 16.2632 5.61075 15.7569 5.49002 15.3113C5.36259 14.832 5.25528 14.4134 5.26869 13.7653C5.2754 13.1847 5.39612 12.7796 5.52356 12.3476C5.67782 11.8615 5.8455 11.3079 5.86562 10.3492C5.93269 8.48594 6.12048 8.02011 6.67717 7.48002C7.23385 6.93993 7.40152 6.71714 7.40152 6.31883C7.40152 5.92726 6.87838 5.02261 7.79724 4.07071C8.39416 3.4631 8.96426 3.24707 9.38009 3.24707C9.61484 3.24707 9.79593 3.31458 9.90324 3.4226C10.1984 3.73315 10.1112 4.334 9.52765 5.13063C8.93743 5.92726 8.95084 6.27832 8.99109 6.4606C9.02462 6.64288 9.20571 6.89267 9.54777 7.16272C9.81605 7.37875 10.1179 7.62179 10.3191 7.97285C10.688 8.64121 10.9026 9.28257 11.2044 10.1602L11.2849 10.41L11.3251 10.5045C11.6135 11.1999 12.3178 11.4497 13.5317 11.4497C14.786 11.4497 16.1206 10.626 16.1206 9.99143C16.1206 9.36358 15.8658 9.28257 15.8658 8.74248C15.8658 8.20239 16.6706 6.64288 17.8913 6.64288C18.5083 6.64288 18.8303 7.09521 18.5285 7.71631C18.2401 8.33066 17.6431 9.21506 17.6431 9.60662C17.6431 10.3222 18.7096 9.76865 19.3803 9.21506C20.0644 8.66146 20.2186 8.50619 20.6814 7.68255C20.9698 7.16947 21.379 7.07495 21.6472 7.20322C21.949 7.3585 22.1368 7.79732 21.8686 8.43193C21.6539 8.92476 21.0771 9.55261 20.4668 10.2142C19.6553 11.0986 18.7364 12.1045 18.7364 12.7459C18.7364 16.0202 20.5808 18.8827 20.7887 19.1932C20.9967 19.5038 21.1107 19.6118 21.1777 19.6388C22.9014 17.6134 23.9477 14.994 23.9545 12.1248V12.0235V11.8075C23.8136 5.46819 18.6157 0.371094 12.2306 0.371094C5.7516 0.371094 0.5 5.60996 0.5 12.0775Z" fill="white"/>
<path fill-rule="evenodd" clip-rule="evenodd" d="M68.7505 8.47241C69.9086 8.47241 70.8095 8.88648 71.4534 9.71462C72.0973 10.5428 72.4192 11.6814 72.4192 13.1307V13.2657C72.4192 14.6789 72.0906 15.8086 71.4333 16.6548C70.776 17.4964 69.8884 17.9172 68.7706 17.9172C67.9032 17.9172 67.1922 17.6112 66.6378 16.9991V21.5966H63.7001V8.64119H66.4433L66.5305 9.48508C67.0938 8.80997 67.8339 8.47241 68.7505 8.47241ZM48.3008 8.47241C49.4991 8.47241 50.447 8.75596 51.1446 9.32305C51.8421 9.89015 52.1998 10.6665 52.2177 11.6522V15.6894C52.2266 16.5265 52.3585 17.1656 52.6134 17.6067V17.7484H49.6824C49.5796 17.5639 49.4857 17.2916 49.4007 16.9316C48.8642 17.5887 48.1107 17.9172 47.1405 17.9172C46.2551 17.9172 45.5017 17.6584 44.8802 17.1408C44.2587 16.6233 43.9479 15.9707 43.9479 15.183C43.9479 14.1929 44.3258 13.4457 45.0814 12.9417C45.8326 12.4376 46.9281 12.1855 48.3679 12.1855H49.2733V11.7062C49.2733 10.8691 48.8999 10.4505 48.1532 10.4505C47.4557 10.4505 47.1069 10.7813 47.1069 11.4429H44.176C44.176 10.5608 44.5627 9.84514 45.3363 9.29605C46.1098 8.74696 47.098 8.47241 48.3008 8.47241ZM57.8449 8.47241C59.0879 8.47241 60.085 8.74471 60.8362 9.2893C61.5919 9.83389 61.9697 10.5495 61.9697 11.4362H59.032C59.032 10.707 58.6341 10.3425 57.8382 10.3425C57.5296 10.3425 57.2703 10.4257 57.0601 10.5923C56.8545 10.7543 56.7516 10.9591 56.7516 11.2066C56.7516 11.4587 56.8791 11.6634 57.1339 11.821C57.3888 11.9785 57.7957 12.109 58.3546 12.2125C58.9135 12.3115 59.4054 12.4308 59.8301 12.5703C61.2476 13.0429 61.9563 13.8891 61.9563 15.1088C61.9563 15.9369 61.574 16.612 60.8094 17.1341C60.0448 17.6562 59.0566 17.9172 57.8449 17.9172C57.04 17.9172 56.3201 17.7777 55.6852 17.4987C55.0547 17.2196 54.5629 16.837 54.2097 16.351C53.8564 15.8694 53.6798 15.3631 53.6798 14.832H56.4163C56.4297 15.2505 56.575 15.5566 56.8522 15.7501C57.1295 15.9436 57.4872 16.0404 57.9254 16.0404C58.3233 16.0404 58.6229 15.9617 58.8241 15.8041C59.0253 15.6466 59.1259 15.4418 59.1259 15.1898C59.1259 14.9512 58.994 14.7577 58.7302 14.6092C58.4709 14.4652 57.9768 14.3144 57.2479 14.1569C56.5146 13.9993 55.911 13.7923 55.437 13.5357C54.9586 13.2792 54.5942 12.9687 54.3438 12.6041C54.0979 12.2395 53.9749 11.821 53.9749 11.3484C53.9749 10.5158 54.3304 9.82714 55.0413 9.28255C55.7568 8.74246 56.6913 8.47241 57.8449 8.47241ZM35.8123 4.7998V10.8961L39.964 4.7998H43.74L39.0987 10.9163L43.3845 17.7484H39.7627L37.0665 13.1847L35.8123 14.5147V17.7484H32.7539V4.7998H35.8123ZM74.2301 8.64119H77.1678V17.7484H74.2301V8.64119ZM103.03 8.64119V10.1737L98.8382 15.5678H103.131V17.7552H95.1292V16.1687L99.3077 10.8353H94.3847L96.3499 8.64119H103.03ZM81.0981 17.6337C80.2933 17.6337 79.6427 17.0058 79.6427 16.2294C79.6427 15.4463 80.2933 14.8185 81.0981 14.8185C81.8962 14.8185 82.5468 15.4463 82.5468 16.2294C82.5468 17.0058 81.8962 17.6337 81.0981 17.6337ZM87.9057 4.80656V11.6117L88.2008 11.2336L90.4209 8.60068H93.942L90.6355 12.307L94.1634 17.6202H90.7965L88.7374 14.2581L87.9057 15.0548V17.6202H84.9681V4.80656H87.9057ZM49.2666 13.7045H48.4148C47.3953 13.7045 46.8856 14.1479 46.8856 15.0345C46.8856 15.291 46.975 15.5003 47.1539 15.6624C47.3327 15.8244 47.5608 15.9054 47.838 15.9054C48.2046 15.9054 48.5087 15.8289 48.7502 15.6759C48.9916 15.5228 49.1637 15.3518 49.2666 15.1628V13.7045ZM68.0194 10.6665C67.3264 10.6665 66.8636 10.9073 66.6311 11.3889V14.9737C66.8859 15.4778 67.3554 15.7299 68.0395 15.7299C68.974 15.7299 69.4547 14.9512 69.4815 13.394V13.0902C69.4815 11.4744 68.9942 10.6665 68.0194 10.6665ZM75.7325 7.75679C74.9276 7.75679 74.2771 7.09518 74.2771 6.2783C74.2771 5.46141 74.9276 4.7998 75.7325 4.7998C76.5306 4.7998 77.1812 5.46141 77.1812 6.2783C77.1812 7.09518 76.5306 7.75679 75.7325 7.75679Z" fill="white"/>
</g>
<path d="M136.891 9.70389L136.891 5.11101M136.891 5.11101H132.298M136.891 5.11101L130.001 12.0003M128.47 5.111H126.786C125.5 5.111 124.857 5.111 124.366 5.3613C123.934 5.58147 123.582 5.93278 123.362 6.36488C123.112 6.85612 123.112 7.49918 123.112 8.78531V15.2153C123.112 16.5015 123.112 17.1445 123.362 17.6358C123.582 18.0679 123.934 18.4192 124.366 18.6394C124.857 18.8896 125.5 18.8896 126.786 18.8896H133.216C134.502 18.8896 135.146 18.8896 135.637 18.6394C136.069 18.4192 136.42 18.0679 136.64 17.6358C136.891 17.1445 136.891 16.5015 136.891 15.2153V13.5313" stroke="white" stroke-width="2" stroke-linecap="round" stroke-linejoin="round"/>
<defs>
<clipPath id="clip0_1_2">
<rect width="104" height="24" fill="white"/>
</clipPath>
</defs>
</svg>
