<svg width="129" height="24" viewBox="0 0 129 24" fill="none" xmlns="http://www.w3.org/2000/svg">
<g clip-path="url(#clip0_1_2)">
<path fill-rule="evenodd" clip-rule="evenodd" d="M10.6064 13.2274C9.86976 13.8602 9.88246 15.6307 9.89516 17.6824V18.2641L9.90151 18.4878C9.90786 20.4245 9.93326 22.0864 10.3905 22.8278C10.5365 23.0771 10.8223 23.256 11.2033 23.3647C11.2985 23.3711 11.3938 23.3711 11.4954 23.3711C12.4288 23.3711 13.3369 23.256 14.2068 23.0387C14.5624 22.8661 14.8228 22.6552 14.9117 22.4379C14.9688 22.2973 14.9942 22.0416 14.9942 21.7029C14.9942 20.3606 14.6005 17.7911 14.41 16.5511L14.3148 15.9055L14.2957 15.7777L14.2703 15.586C14.1116 14.4866 13.8385 13.2977 11.851 12.9909C11.2985 12.9014 10.8921 12.9845 10.6064 13.2274ZM7.08211 21.5494C7.15196 22.0672 7.25356 22.4571 7.39326 22.7127C7.59646 22.7937 7.80389 22.8704 8.01556 22.9428C8.20606 22.7767 8.32036 22.3101 8.28226 21.1851C8.22511 19.568 7.95206 17.4332 7.52026 17.4587C7.05671 17.4843 6.87891 19.9196 7.08211 21.5494ZM16.5246 17.5418C16.0102 17.8039 16.2071 20.7824 16.7468 21.7348C16.8039 21.8307 16.9182 21.8435 17.0452 21.8243C17.4516 21.5771 17.839 21.3044 18.2073 21.0062C18.2517 20.9103 18.2898 20.7952 18.3152 20.6482C18.4168 20.1305 17.204 17.2158 16.5246 17.5418ZM0.230469 12.0833C0.230469 15.7969 2.06562 19.0822 4.87231 21.0892C4.94851 21.0061 5.00566 20.776 5.05011 20.5843L5.06281 20.5076L5.12631 20.2391C5.35491 19.1589 5.39936 18.1043 5.27236 16.8579C5.19616 16.0462 5.06916 15.5668 4.95486 15.1449C4.83421 14.6911 4.73261 14.2948 4.74531 13.6812C4.75166 13.1315 4.86596 12.748 4.98661 12.3389C5.13266 11.8787 5.29141 11.3546 5.31046 10.447C5.37396 8.68287 5.55176 8.24184 6.07881 7.7305C6.60586 7.21916 6.76461 7.00824 6.76461 6.63112C6.76461 6.2604 6.26931 5.40391 7.13926 4.50267C7.70441 3.92742 8.24416 3.72288 8.63786 3.72288C8.86011 3.72288 9.03156 3.7868 9.13316 3.88907C9.41256 4.18309 9.33001 4.75195 8.77756 5.50618C8.21876 6.2604 8.23146 6.59277 8.26956 6.76535C8.30131 6.93793 8.47276 7.17442 8.79661 7.43009C9.05061 7.63463 9.33636 7.86473 9.52686 8.1971C9.87611 8.82988 10.0793 9.4371 10.3651 10.268L10.4413 10.5045L10.4794 10.594C10.7524 11.2524 11.4192 11.4888 12.5685 11.4888C13.756 11.4888 15.0196 10.7091 15.0196 10.1082C15.0196 9.5138 14.7783 9.4371 14.7783 8.92576C14.7783 8.41442 15.5403 6.93793 16.696 6.93793C17.2802 6.93793 17.585 7.36617 17.2992 7.95421C17.0262 8.53586 16.4611 9.37318 16.4611 9.7439C16.4611 10.4214 17.4707 9.8973 18.1057 9.37318C18.7534 8.84906 18.8994 8.70205 19.3376 7.92226C19.6106 7.43648 19.998 7.347 20.252 7.46844C20.5377 7.61545 20.7155 8.03092 20.4615 8.63174C20.2583 9.09834 19.7122 9.69277 19.1344 10.3192C18.366 11.1565 17.4961 12.1088 17.4961 12.7161C17.4961 15.8161 19.2423 18.5262 19.4392 18.8202C19.636 19.1142 19.744 19.2165 19.8075 19.242C21.4394 17.3245 22.43 14.8445 22.4364 12.128V12.0321V11.8276C22.303 5.82576 17.3818 1 11.3366 1C5.20251 1 0.230469 5.95999 0.230469 12.0833Z" fill="white"/>
<path fill-rule="evenodd" clip-rule="evenodd" d="M64.846 8.66998C65.9425 8.66998 66.7955 9.06201 67.4051 9.84606C68.0147 10.6301 68.3195 11.7082 68.3195 13.0803V13.2081C68.3195 14.5461 68.0083 15.6157 67.386 16.4168C66.7637 17.2136 65.9234 17.612 64.8651 17.612C64.0438 17.612 63.3707 17.3223 62.8458 16.7428V21.0955H60.0645V8.82977H62.6616L62.7442 9.62874C63.2776 8.98957 63.9782 8.66998 64.846 8.66998ZM45.4849 8.66998C46.6194 8.66998 47.5169 8.93843 48.1773 9.47534C48.8377 10.0122 49.1764 10.7473 49.1933 11.6805V15.5028C49.2018 16.2953 49.3267 16.9004 49.568 17.318V17.4522H46.793C46.6956 17.2775 46.6067 17.0197 46.5263 16.6788C46.0183 17.301 45.305 17.612 44.3864 17.612C43.5482 17.612 42.8348 17.367 42.2464 16.877C41.658 16.3869 41.3638 15.7691 41.3638 15.0234C41.3638 14.0859 41.7215 13.3786 42.4369 12.9013C43.1481 12.4241 44.1853 12.1854 45.5484 12.1854H46.4057V11.7316C46.4057 10.939 46.0522 10.5428 45.3452 10.5428C44.6848 10.5428 44.3546 10.856 44.3546 11.4823H41.5797C41.5797 10.6472 41.9458 9.96963 42.6782 9.44977C43.4106 8.92991 44.3461 8.66998 45.4849 8.66998ZM54.5209 8.66998C55.6978 8.66998 56.6418 8.92778 57.353 9.44338C58.0685 9.95898 58.4262 10.6365 58.4262 11.476H55.6449C55.6449 10.7856 55.2681 10.4405 54.5146 10.4405C54.2225 10.4405 53.977 10.5193 53.778 10.677C53.5833 10.8304 53.4859 11.0243 53.4859 11.2586C53.4859 11.4973 53.6065 11.6911 53.8478 11.8403C54.0891 11.9894 54.4744 12.113 55.0035 12.211C55.5327 12.3047 55.9984 12.4177 56.4005 12.5498C57.7425 12.9972 58.4135 13.7983 58.4135 14.9531C58.4135 15.7371 58.0515 16.3763 57.3276 16.8706C56.6037 17.3649 55.6682 17.612 54.5209 17.612C53.7589 17.612 53.0774 17.4799 52.4762 17.2157C51.8793 16.9515 51.4137 16.5893 51.0792 16.1291C50.7448 15.6732 50.5776 15.1938 50.5776 14.691H53.1684C53.1811 15.0873 53.3187 15.377 53.5811 15.5603C53.8436 15.7435 54.1823 15.8351 54.5971 15.8351C54.9739 15.8351 55.2575 15.7606 55.448 15.6114C55.6385 15.4623 55.7338 15.2684 55.7338 15.0298C55.7338 14.8039 55.6089 14.6207 55.3591 14.4801C55.1136 14.3437 54.6458 14.201 53.9558 14.0518C53.2615 13.9027 52.69 13.7067 52.2413 13.4638C51.7883 13.2209 51.4433 12.9269 51.2062 12.5817C50.9734 12.2366 50.857 11.8403 50.857 11.3929C50.857 10.6045 51.1936 9.95259 51.8666 9.43699C52.544 8.92565 53.4287 8.66998 54.5209 8.66998ZM33.6612 5.19287V10.9646L37.5919 5.19287H41.1669L36.7727 10.9838L40.8304 17.4522H37.4014L34.8487 13.1314L33.6612 14.3906V17.4522H30.7656V5.19287H33.6612ZM70.034 8.82977H72.8153V17.4522H70.034V8.82977ZM97.3008 8.82977V10.2807L93.3321 15.3877H97.3961V17.4586H89.8205V15.9566L93.7766 10.9071H89.1157L90.9762 8.82977H97.3008ZM76.5364 17.3436C75.7744 17.3436 75.1584 16.7491 75.1584 16.0141C75.1584 15.2726 75.7744 14.6782 76.5364 14.6782C77.292 14.6782 77.908 15.2726 77.908 16.0141C77.908 16.7491 77.292 17.3436 76.5364 17.3436ZM82.9816 5.19926V11.6421L83.261 11.2842L85.3629 8.79142H88.6966L85.5661 12.3005L88.9062 17.3308H85.7185L83.769 14.1477L82.9816 14.9019V17.3308H80.2003V5.19926H82.9816ZM46.3993 13.6236H45.5929C44.6277 13.6236 44.1451 14.0433 44.1451 14.8828C44.1451 15.1256 44.2297 15.3238 44.3991 15.4772C44.5684 15.6306 44.7843 15.7073 45.0468 15.7073C45.3939 15.7073 45.6818 15.6348 45.9104 15.49C46.139 15.3451 46.3019 15.1832 46.3993 15.0042V13.6236ZM64.1539 10.7473C63.4977 10.7473 63.0596 10.9753 62.8394 11.4312V14.8252C63.0807 15.3025 63.5252 15.5411 64.1729 15.5411C65.0577 15.5411 65.5128 14.8039 65.5382 13.3296V13.0419C65.5382 11.5122 65.0768 10.7473 64.1539 10.7473ZM71.4564 7.99245C70.6944 7.99245 70.0784 7.36606 70.0784 6.59266C70.0784 5.81926 70.6944 5.19287 71.4564 5.19287C72.212 5.19287 72.828 5.81926 72.828 6.59266C72.828 7.36606 72.212 7.99245 71.4564 7.99245Z" fill="white"/>
</g>
<path d="M126 9.66667L126 5.00001M126 5.00001H121.333M126 5.00001L119 12M117.444 5H115.733C114.427 5 113.773 5 113.274 5.25432C112.835 5.47802 112.478 5.83498 112.254 6.27402C112 6.77315 112 7.42654 112 8.73333V15.2667C112 16.5735 112 17.2269 112.254 17.726C112.478 18.165 112.835 18.522 113.274 18.7457C113.773 19 114.427 19 115.733 19H122.267C123.573 19 124.227 19 124.726 18.7457C125.165 18.522 125.522 18.165 125.746 17.726C126 17.2269 126 16.5735 126 15.2667V13.5556" stroke="white" stroke-width="2" stroke-linecap="round" stroke-linejoin="round"/>
<defs>
<clipPath id="clip0_1_2">
<rect width="97" height="24" fill="white"/>
</clipPath>
</defs>
</svg>
