<svg width="114" height="20" viewBox="0 0 114 20" fill="none" xmlns="http://www.w3.org/2000/svg">
<path fill-rule="evenodd" clip-rule="evenodd" d="M8.93258 10.8972C8.29845 11.4419 8.30938 12.9661 8.32031 14.7325V15.2332L8.32578 15.4258C8.33125 17.0931 8.35311 18.5238 8.74672 19.1621C8.87245 19.3767 9.11845 19.5308 9.44645 19.6243C9.52845 19.6298 9.61045 19.6298 9.69792 19.6298C10.5015 19.6298 11.2833 19.5308 12.0322 19.3437C12.3383 19.1951 12.5625 19.0135 12.639 18.8265C12.6882 18.7054 12.7101 18.4853 12.7101 18.1937C12.7101 17.0381 12.3711 14.826 12.2071 13.7585L12.1251 13.2028L12.1087 13.0927L12.0869 12.9276C11.9502 11.9812 11.7151 10.9577 10.0041 10.6936C9.52845 10.6165 9.17859 10.6881 8.93258 10.8972ZM5.89857 18.0616C5.9587 18.5073 6.04617 18.843 6.16644 19.0631C6.34137 19.1328 6.51995 19.1988 6.70217 19.2612C6.86617 19.1181 6.96457 18.7164 6.93177 17.7479C6.88257 16.3558 6.6475 14.5179 6.27577 14.5399C5.8767 14.5619 5.72363 16.6584 5.89857 18.0616ZM14.0275 14.6114C13.5847 14.837 13.7542 17.4013 14.2189 18.2212C14.2681 18.3037 14.3665 18.3147 14.4758 18.2982C14.8257 18.0854 15.1592 17.8507 15.4762 17.5939C15.5145 17.5113 15.5473 17.4123 15.5692 17.2857C15.6566 16.84 14.6125 14.3308 14.0275 14.6114ZM0 9.91218C0 13.1092 1.57988 15.9376 3.99616 17.6654C4.06176 17.5939 4.11096 17.3958 4.14922 17.2307L4.16016 17.1647L4.21482 16.9335C4.41162 16.0036 4.44989 15.0957 4.34056 14.0227C4.27496 13.3238 4.16562 12.9111 4.06722 12.5479C3.96336 12.1573 3.87589 11.8161 3.88682 11.2878C3.89229 10.8146 3.99069 10.4845 4.09456 10.1323C4.22029 9.7361 4.35696 9.28488 4.37336 8.50351C4.42803 6.98478 4.58109 6.6051 5.03483 6.16488C5.48856 5.72467 5.62523 5.54309 5.62523 5.21843C5.62523 4.89928 5.19883 4.16192 5.94777 3.38605C6.4343 2.89081 6.89897 2.71473 7.23791 2.71473C7.42924 2.71473 7.57684 2.76976 7.66431 2.8578C7.90484 3.11092 7.83378 3.60065 7.35818 4.24997C6.87711 4.89928 6.88804 5.18541 6.92084 5.33399C6.94817 5.48256 7.09577 5.68615 7.37457 5.90626C7.59324 6.08235 7.83924 6.28044 8.00325 6.56658C8.30391 7.11134 8.47885 7.63409 8.72485 8.34943L8.79045 8.55303L8.82325 8.63007C9.05832 9.19684 9.63232 9.40044 10.6218 9.40044C11.6441 9.40044 12.7319 8.72911 12.7319 8.21187C12.7319 7.70012 12.5242 7.63409 12.5242 7.19388C12.5242 6.75367 13.1802 5.48256 14.1751 5.48256C14.6781 5.48256 14.9405 5.85123 14.6945 6.35748C14.4594 6.85822 13.9729 7.57906 13.9729 7.89822C13.9729 8.4815 14.8421 8.03028 15.3888 7.57906C15.9464 7.12785 16.0721 7.00129 16.4493 6.32996C16.6844 5.91176 17.0178 5.83473 17.2365 5.93928C17.4825 6.06584 17.6356 6.42351 17.4169 6.94076C17.242 7.34245 16.7718 7.8542 16.2744 8.39345C15.6129 9.1143 14.864 9.93419 14.864 10.4569C14.864 13.1257 16.3673 15.4588 16.5368 15.712C16.7062 15.9651 16.7992 16.0531 16.8538 16.0751C18.2588 14.4243 19.1116 12.2893 19.117 9.9507V9.86816V9.69208C19.0022 4.5251 14.7656 0.370605 9.56125 0.370605C4.28042 0.370605 0 4.64065 0 9.91218Z" fill="white"/>
<path fill-rule="evenodd" clip-rule="evenodd" d="M55.6288 6.97342C56.5727 6.97342 57.3071 7.31091 57.8319 7.9859C58.3567 8.66089 58.6191 9.589 58.6191 10.7702V10.8803C58.6191 12.0322 58.3512 12.953 57.8155 13.6426C57.2798 14.3286 56.5563 14.6716 55.6452 14.6716C54.9382 14.6716 54.3587 14.4222 53.9068 13.9233V17.6705H51.5124V7.11098H53.7483L53.8194 7.79881C54.2786 7.24855 54.8817 6.97342 55.6288 6.97342ZM38.9609 6.97342C39.9376 6.97342 40.7102 7.20453 41.2787 7.66675C41.8473 8.12897 42.1388 8.76177 42.1534 9.56516V12.8557C42.1607 13.5381 42.2682 14.059 42.476 14.4185V14.534H40.087C40.0032 14.3836 39.9266 14.1617 39.8574 13.8682C39.4201 14.4038 38.806 14.6716 38.0151 14.6716C37.2935 14.6716 36.6794 14.4607 36.1729 14.0388C35.6663 13.6169 35.413 13.085 35.413 12.443C35.413 11.636 35.7209 11.027 36.3369 10.6162C36.9491 10.2053 37.842 9.99987 39.0155 9.99987H39.7535V9.60918C39.7535 8.92685 39.4492 8.58569 38.8406 8.58569C38.2721 8.58569 37.9878 8.85532 37.9878 9.39458H35.5988C35.5988 8.67557 35.9141 8.09229 36.5446 7.64474C37.1751 7.19719 37.9805 6.97342 38.9609 6.97342ZM46.74 6.97342C47.7531 6.97342 48.5659 7.19536 49.1781 7.63924C49.794 8.08312 50.102 8.66639 50.102 9.38907H47.7076C47.7076 8.79479 47.3832 8.49765 46.7345 8.49765C46.483 8.49765 46.2717 8.56551 46.1004 8.70124C45.9327 8.83331 45.8489 9.00022 45.8489 9.20199C45.8489 9.40742 45.9528 9.57433 46.1605 9.70273C46.3682 9.83112 46.6999 9.9375 47.1554 10.0219C47.611 10.1026 48.0119 10.1998 48.3581 10.3135C49.5134 10.6987 50.0911 11.3884 50.0911 12.3825C50.0911 13.0575 49.7795 13.6078 49.1563 14.0333C48.5331 14.4588 47.7276 14.6716 46.74 14.6716C46.084 14.6716 45.4972 14.5579 44.9797 14.3304C44.4658 14.103 44.0649 13.7912 43.777 13.395C43.4891 13.0025 43.3452 12.5898 43.3452 12.1569H45.5756C45.5865 12.4981 45.705 12.7475 45.9309 12.9053C46.1569 13.063 46.4484 13.1419 46.8056 13.1419C47.1299 13.1419 47.3741 13.0777 47.5381 12.9493C47.7021 12.8209 47.7841 12.654 47.7841 12.4485C47.7841 12.2541 47.6766 12.0964 47.4616 11.9753C47.2502 11.8579 46.8475 11.735 46.2534 11.6066C45.6557 11.4782 45.1637 11.3095 44.7774 11.1004C44.3875 10.8913 44.0905 10.6382 43.8864 10.341C43.6859 10.0439 43.5857 9.70273 43.5857 9.31754C43.5857 8.63888 43.8754 8.07761 44.4549 7.63373C45.038 7.19352 45.7997 6.97342 46.74 6.97342ZM28.7819 3.97998V8.94886L32.1658 3.97998H35.2435L31.4606 8.96537L34.9538 14.534H32.0018L29.8041 10.8143L28.7819 11.8983V14.534H26.2891V3.97998H28.7819ZM60.0951 7.11098H62.4895V14.534H60.0951V7.11098ZM83.5691 7.11098V8.36008L80.1524 12.7567H83.6511V14.5395H77.1293V13.2464L80.5351 8.89934H76.5225L78.1243 7.11098H83.5691ZM65.693 14.4405C65.037 14.4405 64.5067 13.9288 64.5067 13.2959C64.5067 12.6576 65.037 12.1459 65.693 12.1459C66.3436 12.1459 66.8738 12.6576 66.8738 13.2959C66.8738 13.9288 66.3436 14.4405 65.693 14.4405ZM71.2417 3.98548V9.53214L71.4822 9.224L73.2917 7.07797H76.1617L73.4667 10.0989L76.3421 14.4295H73.5979L71.9196 11.6892L71.2417 12.3385V14.4295H68.8473V3.98548H71.2417ZM39.7481 11.238H39.0538C38.2229 11.238 37.8074 11.5993 37.8074 12.322C37.8074 12.5311 37.8803 12.7017 38.0261 12.8337C38.1718 12.9658 38.3577 13.0318 38.5837 13.0318C38.8825 13.0318 39.1303 12.9695 39.3271 12.8447C39.5239 12.72 39.6642 12.5806 39.7481 12.4265V11.238ZM55.033 8.76177C54.4681 8.76177 54.0909 8.95803 53.9014 9.35056V12.2725C54.1091 12.6833 54.4918 12.8888 55.0494 12.8888C55.811 12.8888 56.2028 12.2541 56.2247 10.9848V10.7372C56.2247 9.42026 55.8275 8.76177 55.033 8.76177ZM61.3197 6.39014C60.6637 6.39014 60.1334 5.85088 60.1334 5.18506C60.1334 4.51924 60.6637 3.97998 61.3197 3.97998C61.9702 3.97998 62.5005 4.51924 62.5005 5.18506C62.5005 5.85088 61.9702 6.39014 61.3197 6.39014Z" fill="white"/>
<path d="M112.391 7.70389L112.391 3.11101M112.391 3.11101H107.798M112.391 3.11101L105.501 10.0003M103.97 3.111H102.286C101 3.111 100.357 3.111 99.8659 3.3613C99.4338 3.58147 99.0824 3.93278 98.8623 4.36488C98.612 4.85612 98.612 5.49918 98.612 6.78531V13.2153C98.612 14.5015 98.612 15.1445 98.8623 15.6358C99.0824 16.0679 99.4338 16.4192 99.8659 16.6394C100.357 16.8896 101 16.8896 102.286 16.8896H108.716C110.002 16.8896 110.646 16.8896 111.137 16.6394C111.569 16.4192 111.92 16.0679 112.14 15.6358C112.391 15.1445 112.391 14.5015 112.391 13.2153V11.5313" stroke="white" stroke-width="2" stroke-linecap="round" stroke-linejoin="round"/>
</svg>
