<svg width="233" height="40" viewBox="0 0 233 40" fill="none" xmlns="http://www.w3.org/2000/svg">
<path d="M4.40948 9.36262C4.34285 9.08783 4.35395 8.81303 4.38727 8.65915C4.47612 8.23047 4.76489 7.76882 5.62007 7.76882C6.41973 7.76882 6.87509 8.25245 6.87509 8.9889V9.81328H10.2514V8.86799C10.2736 5.95517 7.6081 5.49352 5.69782 5.49352C3.29885 5.48253 1.33303 6.27394 0.966524 8.4503C0.866567 9.05485 0.844354 9.58246 0.999843 10.253C1.58848 12.9789 6.40862 13.7703 7.10832 15.496C7.2527 15.8258 7.19717 16.2325 7.14164 16.4963C7.04168 16.9469 6.7196 17.4086 5.81999 17.4086C4.9648 17.4086 4.46501 16.925 4.46501 16.1885V14.9025H0.811035V15.9357C0.811035 18.9145 3.19889 19.8158 5.73114 19.8158C8.26338 19.8158 10.1848 18.9914 10.518 16.7601C10.6734 15.6059 10.5513 14.8585 10.4957 14.5837C9.94043 11.7588 4.7871 10.9344 4.40948 9.37361V9.36262ZM48.4683 9.3846C48.4127 9.13179 48.4349 8.83502 48.446 8.70311C48.546 8.27444 48.8237 7.81278 49.6788 7.81278C50.4563 7.81278 50.9117 8.29642 50.9117 9.01088V9.83527H54.2547V8.91196C54.2547 6.01013 51.6447 5.57046 49.7566 5.57046C47.3687 5.57046 45.4251 6.33989 45.0586 8.50526C44.9698 9.08783 44.9364 9.61543 45.0919 10.2859C45.6695 12.9789 50.4341 13.7703 51.1227 15.485C51.2448 15.8148 51.2115 16.2215 51.1449 16.4633C51.0449 16.914 50.7451 17.3536 49.8454 17.3536C49.0125 17.3536 48.4905 16.87 48.4905 16.1555V14.8695H44.892V15.8807C44.892 18.8265 47.2355 19.7279 49.7566 19.7279C52.2777 19.7279 54.1769 18.9035 54.4879 16.7051C54.6434 15.551 54.5212 14.8145 54.4657 14.5397C53.9215 11.7588 48.8459 10.9344 48.4683 9.37361V9.3846ZM79.2217 16.6721L76.0341 5.91121H71.003V19.1343H74.3238L74.135 8.03262L77.5557 19.1343H82.3759V5.91121H79.0329L79.2106 16.6611L79.2217 16.6721ZM15.3159 5.91121L12.7948 19.1602H16.4487L18.3368 6.91146L20.1805 19.1712H23.8122L21.3355 5.91121H15.3159ZM35.7737 5.91121L34.0745 16.3534L32.3641 5.91121H26.8331L26.5333 19.1602H29.9207L30.0096 6.90047L32.3419 19.1602H35.7626L38.095 6.90047L38.1838 19.1602H41.5712L41.2714 5.91121H35.7626H35.7737ZM67.249 5.91121H63.8283V15.7928C63.8283 15.9687 63.8283 16.1555 63.795 16.3094C63.7283 16.6392 63.4507 17.2877 62.4955 17.2877C61.5404 17.2877 61.2738 16.6502 61.2072 16.3094C61.1739 16.1775 61.1739 15.9687 61.1739 15.7928V5.91121H57.7531V15.485C57.7531 15.7269 57.7754 16.2435 57.7865 16.3644C58.0308 18.8485 60.0077 19.6729 62.4955 19.6729C64.9834 19.6729 66.9825 18.8705 67.2268 16.3644C67.249 16.2325 67.2824 15.7269 67.2602 15.485V5.91121H67.249ZM90.7611 11.7588V13.7154H92.1494V15.6499C92.1494 15.8258 92.1494 16.0126 92.1161 16.1665C92.0606 16.5292 91.7163 17.1448 90.7278 17.1448C89.7393 17.1448 89.4062 16.5292 89.3506 16.1665C89.3284 16.0126 89.3173 15.8258 89.3173 15.6499V9.54948C89.3173 9.32965 89.3395 9.09882 89.3839 8.91196C89.4506 8.58221 89.7505 7.95568 90.7278 7.95568C91.7718 7.95568 92.0161 8.62617 92.0828 8.91196C92.1161 9.09882 92.1161 9.42857 92.1161 9.42857V10.165H95.5257V9.71436C95.5257 9.71436 95.548 9.2527 95.5035 8.82402C95.2481 6.33989 93.1379 5.54848 90.7389 5.54848C88.34 5.54848 86.2853 6.35088 85.9854 8.84601C85.9521 9.06584 85.9188 9.48353 85.9188 9.73634V15.3421C85.9188 15.584 85.9188 15.7708 85.9743 16.2215C86.1964 18.6616 88.34 19.519 90.7389 19.519C93.1379 19.519 95.2814 18.6616 95.5035 16.2215C95.5368 15.7708 95.5591 15.584 95.5591 15.3421V11.7588H90.7611Z" fill="black"/>
<path d="M7.50112 28.891C7.50112 29.7156 7.25569 30.357 6.76484 30.8151C6.27399 31.2667 5.58025 31.5187 4.68363 31.5711V32.5626H3.99643V31.5711C3.1129 31.5122 2.42898 31.2569 1.94467 30.8053C1.46691 30.3472 1.22803 29.7091 1.22803 28.891C1.22803 28.0729 1.46691 27.4381 1.94467 26.9865C2.42898 26.5284 3.1129 26.2699 3.99643 26.211V25.2783H4.68363V26.211C5.58025 26.2633 6.27399 26.5186 6.76484 26.9767C7.25569 27.4283 7.50112 28.0664 7.50112 28.891ZM4.68363 30.9428C5.34464 30.8904 5.8584 30.6941 6.2249 30.3537C6.59141 30.0069 6.77466 29.5226 6.77466 28.9008C6.77466 28.2791 6.59141 27.7948 6.2249 27.4479C5.8584 27.0945 5.34464 26.8916 4.68363 26.8392V30.9428ZM1.94467 28.9008C1.94467 29.5095 2.12138 29.9872 2.47479 30.3341C2.83475 30.681 3.34196 30.8806 3.99643 30.933V26.8491C3.34196 26.9014 2.83475 27.1043 2.47479 27.4577C2.12138 27.8046 1.94467 28.2856 1.94467 28.9008Z" fill="black"/>
<path d="M9.68051 31.3158L12.3606 27.2319H13.0674V32.4742H12.3606V28.3805L9.68051 32.4742H8.97368V27.2319H9.68051V31.3158Z" fill="black"/>
<path d="M19.0656 29.8923C19.0656 30.7432 18.8824 31.4074 18.5158 31.8852C18.1493 32.363 17.6356 32.6019 16.9746 32.6019C16.7062 32.6019 16.4543 32.5495 16.2187 32.4448C15.9896 32.3401 15.79 32.1928 15.6198 32.003V34.5064H14.913V27.2319H15.5707V27.8995C15.7474 27.6377 15.9634 27.4414 16.2187 27.3105C16.4804 27.173 16.7717 27.1043 17.0924 27.1043C17.7076 27.1043 18.1886 27.3497 18.5355 27.8406C18.8889 28.3314 19.0656 29.0154 19.0656 29.8923ZM18.3293 29.8923C18.3293 29.2052 18.2082 28.6848 17.9661 28.3314C17.7305 27.9715 17.3803 27.7915 16.9157 27.7915C16.6604 27.7915 16.4281 27.8439 16.2187 27.9486C16.0092 28.0467 15.8096 28.2071 15.6198 28.4296V31.3453C15.7834 31.5351 15.9863 31.6856 16.2285 31.7969C16.4706 31.9016 16.7193 31.9539 16.9746 31.9539C17.4196 31.9539 17.7567 31.7805 17.9857 31.4336C18.2148 31.0868 18.3293 30.573 18.3293 29.8923Z" fill="black"/>
<path d="M25.6921 32.4742H25.0246V28.2725L23.3949 31.5023H22.7863L21.2057 28.2725V32.4742H20.548V27.2319H21.4021L23.1004 30.6875L24.838 27.2319H25.6921V32.4742Z" fill="black"/>
<path d="M31.1406 32.0815C30.9377 32.2452 30.689 32.3728 30.3945 32.4644C30.1065 32.5495 29.8022 32.592 29.4815 32.592C28.7485 32.592 28.1758 32.3532 27.7635 31.8754C27.3577 31.3911 27.1549 30.717 27.1549 29.8531C27.1549 28.9892 27.3446 28.3151 27.7242 27.8308C28.1038 27.3465 28.6307 27.1043 29.3048 27.1043C29.9593 27.1043 30.4697 27.3268 30.8362 27.7719C31.2027 28.2104 31.386 28.8288 31.386 29.6273C31.386 29.7844 31.3762 29.9218 31.3565 30.0396H27.8715C27.8977 30.6613 28.0482 31.1326 28.3231 31.4533C28.6045 31.7674 29.0037 31.9245 29.5208 31.9245C29.9985 31.9245 30.4468 31.787 30.8657 31.5122L31.1406 32.0815ZM29.2852 27.7424C28.8663 27.7424 28.5391 27.8864 28.3034 28.1744C28.0744 28.4558 27.9369 28.8779 27.8911 29.4408H30.6792C30.6726 28.9041 30.545 28.4885 30.2963 28.194C30.0542 27.8929 29.7171 27.7424 29.2852 27.7424Z" fill="black"/>
<path d="M36.7461 32.4742H36.0393V30.128H33.5163V32.4742H32.8095V27.2319H33.5163V29.4898H36.0393V27.2319H36.7461V32.4742Z" fill="black"/>
<path d="M42.5283 32.4742H41.8215V30.128H39.2985V32.4742H38.5917V27.2319H39.2985V29.4898H41.8215V27.2319H42.5283V32.4742Z" fill="black"/>
<path d="M44.374 27.2319H45.0808V29.1266H46.141C47.4172 29.1266 48.0553 29.6796 48.0553 30.7857C48.0553 31.3355 47.8754 31.7543 47.5154 32.0423C47.162 32.3302 46.7137 32.4742 46.1705 32.4742H44.374V27.2319ZM49.577 27.2319V32.4742H48.8702V27.2319H49.577ZM45.0808 31.8656H46.141C46.501 31.8656 46.7857 31.7772 46.9951 31.6005C47.2111 31.4173 47.3191 31.1457 47.3191 30.7857C47.3191 30.092 46.9362 29.7451 46.1705 29.7451H45.0808V31.8656Z" fill="black"/>
<path d="M52.1294 31.3158L54.8095 27.2319H55.5163V32.4742H54.8095V28.3805L52.1294 32.4742H51.4226V27.2319H52.1294V31.3158ZM53.5725 26.4073C52.6432 26.4073 52.1229 25.9524 52.0116 25.0427H52.5417C52.5941 25.2914 52.7021 25.4779 52.8657 25.6023C53.0359 25.7266 53.2747 25.7888 53.5823 25.7888C53.8703 25.7888 54.1026 25.7266 54.2794 25.6023C54.4626 25.4714 54.5804 25.2849 54.6328 25.0427H55.1334C55.0811 25.4878 54.9207 25.8281 54.6524 26.0637C54.3841 26.2928 54.0241 26.4073 53.5725 26.4073Z" fill="black"/>
<path d="M64.7738 32.4742H64.1062V28.2725L62.4766 31.5023H61.8679L60.2874 28.2725V32.4742H59.6296V27.2319H60.4837L62.1821 30.6875L63.9197 27.2319H64.7738V32.4742Z" fill="black"/>
<path d="M69.3289 31.8361C68.9886 32.3335 68.4617 32.5822 67.7483 32.5822C67.2313 32.5822 66.8255 32.4448 66.531 32.1699C66.2431 31.895 66.0991 31.5122 66.0991 31.0213C66.0991 30.3996 66.3543 29.9414 66.8648 29.6469C67.3818 29.3459 68.1868 29.1921 69.2798 29.1855V28.8223C69.2798 28.482 69.1718 28.2234 68.9558 28.0467C68.7464 27.8635 68.4388 27.7719 68.033 27.7719C67.6076 27.7719 67.1953 27.8668 66.7961 28.0566L66.6096 27.4577C67.0742 27.2221 67.5749 27.1043 68.1116 27.1043C68.6744 27.1043 69.126 27.245 69.4663 27.5264C69.8132 27.8079 69.9866 28.2202 69.9866 28.7634V32.4742H69.3289V31.8361ZM69.2798 29.7745C68.4355 29.7811 67.8138 29.8825 67.4146 30.0789C67.0153 30.2687 66.8157 30.5665 66.8157 30.9722C66.8157 31.2864 66.9073 31.5252 67.0906 31.6889C67.2738 31.8525 67.5455 31.9343 67.9054 31.9343C68.1868 31.9343 68.4388 31.8819 68.6613 31.7772C68.8839 31.6725 69.09 31.5122 69.2798 31.2962V29.7745Z" fill="black"/>
<path d="M71.7635 27.2319H74.8363V27.8406H72.4703V32.4742H71.7635V27.2319Z" fill="black"/>
<path d="M78.714 31.8361C78.3737 32.3335 77.8468 32.5822 77.1334 32.5822C76.6164 32.5822 76.2106 32.4448 75.9161 32.1699C75.6282 31.895 75.4842 31.5122 75.4842 31.0213C75.4842 30.3996 75.7394 29.9414 76.2499 29.6469C76.7669 29.3459 77.5719 29.1921 78.6649 29.1855V28.8223C78.6649 28.482 78.5569 28.2234 78.3409 28.0467C78.1315 27.8635 77.8239 27.7719 77.4181 27.7719C76.9927 27.7719 76.5804 27.8668 76.1812 28.0566L75.9947 27.4577C76.4593 27.2221 76.96 27.1043 77.4967 27.1043C78.0595 27.1043 78.5111 27.245 78.8514 27.5264C79.1983 27.8079 79.3717 28.2202 79.3717 28.7634V32.4742H78.714V31.8361ZM78.6649 29.7745C77.8206 29.7811 77.1989 29.8825 76.7997 30.0789C76.4004 30.2687 76.2008 30.5665 76.2008 30.9722C76.2008 31.2864 76.2924 31.5252 76.4757 31.6889C76.659 31.8525 76.9305 31.9343 77.2905 31.9343C77.5719 31.9343 77.8239 31.8819 78.0464 31.7772C78.2689 31.6725 78.4751 31.5122 78.6649 31.2962V29.7745Z" fill="black"/>
<path d="M83.112 29.696C83.7927 29.8989 84.133 30.3308 84.133 30.9919C84.133 31.5089 83.9399 31.9048 83.5538 32.1797C83.1677 32.4546 82.6604 32.592 82.0322 32.592C81.7311 32.592 81.4398 32.5626 81.1584 32.5037C80.877 32.4448 80.6283 32.3532 80.4123 32.2288L80.6676 31.6594C80.8443 31.751 81.0472 31.823 81.2762 31.8754C81.5053 31.9277 81.7278 31.9539 81.9438 31.9539C82.4216 31.9539 82.7815 31.8721 83.0237 31.7085C83.2724 31.5383 83.3967 31.2864 83.3967 30.9526C83.3967 30.3767 82.9615 30.0887 82.0911 30.0887H81.2861V29.4898H82.0812C82.415 29.4898 82.6866 29.4179 82.896 29.2739C83.112 29.1233 83.22 28.9041 83.22 28.6161C83.22 28.302 83.1087 28.0762 82.8862 27.9388C82.6703 27.8013 82.3888 27.7326 82.042 27.7326C81.6951 27.7326 81.2926 27.8308 80.8345 28.0271L80.6381 27.4381C80.8279 27.3399 81.057 27.2581 81.3253 27.1927C81.6002 27.1272 81.8653 27.0945 82.1205 27.0945C82.6572 27.0945 83.0924 27.2123 83.4262 27.4479C83.7665 27.6835 83.9367 28.0369 83.9367 28.5081C83.9367 28.8027 83.8647 29.0481 83.7207 29.2444C83.5832 29.4342 83.3804 29.5847 83.112 29.696Z" fill="black"/>
<path d="M86.2338 31.3158L88.9139 27.2319H89.6207V32.4742H88.9139V28.3805L86.2338 32.4742H85.527V27.2319H86.2338V31.3158Z" fill="black"/>
<path d="M95.403 32.4742H94.6961V30.128H92.1732V32.4742H91.4663V27.2319H92.1732V29.4898H94.6961V27.2319H95.403V32.4742Z" fill="black"/>
<path fill-rule="evenodd" clip-rule="evenodd" d="M132.946 19.1212H123.565C122.1 19.1212 121.465 18.6814 121.66 17.118L123.077 7.63925C123.126 7.1018 123.37 6.6132 123.761 6.22233C124.298 5.83145 124.934 5.63602 125.569 5.68488H134.705L133.533 7.68811H126.692C126.057 7.68811 125.715 7.88355 125.618 8.51872L125.324 10.6197L125.227 11.206H132.653L131.432 13.2092H124.982L124.543 16.2873C124.494 16.4828 124.543 16.6782 124.64 16.8737C124.934 17.0202 125.227 17.0691 125.569 17.0202H134.168L132.946 19.1212ZM150.34 5.73374L143.354 17.802C142.865 18.7303 141.888 19.3166 140.813 19.2678C139.689 19.2678 139.005 18.7792 138.712 17.802L135.292 5.73374H138.223L140.911 16.5316C141.057 16.9714 141.35 16.8737 141.546 16.5316L147.409 5.73374H150.34ZM152.441 14.2353L151.708 19.1212H148.972L150.634 8.03012C150.878 6.46663 151.708 5.73374 153.272 5.73374H160.112C163.044 5.73374 163.679 7.29723 163.288 9.88678C162.946 12.232 162.018 14.2841 159.331 14.2841H157.474V14.3818L162.262 19.1212H158.842L154.738 14.7727C154.151 14.1375 153.663 14.2353 152.441 14.2353ZM152.686 12.4275C154.542 12.4275 156.448 12.4275 158.304 12.4275C158.891 12.4763 159.477 12.2809 159.868 11.8411C160.21 11.3037 160.405 10.6685 160.454 9.9845C160.601 9.05617 160.503 8.46986 160.21 8.12784C159.77 7.78583 159.282 7.63925 158.744 7.73697H154.347C153.761 7.68811 153.272 8.07898 153.223 8.66529V8.71415L152.686 12.4275ZM166.757 19.1212L168.223 9.20275L165.194 11.4014L164.07 19.0723L166.757 19.1212ZM171.985 19.1212H169.249L171.203 5.73374H173.939L173.207 10.8151C173.255 10.7662 173.304 10.7662 173.304 10.7174L179.509 5.73374H182.881L175.845 11.206C175.454 11.4503 175.161 11.7923 175.014 12.1832C174.965 12.574 175.161 12.9649 175.65 13.4535L181.61 19.0723H178.19L173.011 13.9421C172.913 13.8444 172.816 13.7467 172.767 13.6489L171.985 19.1212ZM197.392 19.1212H194.558L193.581 15.7499H186.643L184.688 19.1212H181.806L188.988 7.1018C189.672 5.97803 190.258 5.58716 191.578 5.58716C192.75 5.58716 193.337 5.92917 193.727 7.1018L197.392 19.1212ZM193.141 13.9421L191.578 8.51872C191.48 8.12784 191.333 7.98126 191.236 7.98126C190.991 8.07898 190.845 8.27442 190.747 8.51872L187.571 13.9421H193.141Z" fill="#019AAC"/>
<path fill-rule="evenodd" clip-rule="evenodd" d="M167.414 8.03878L164.384 10.1887L165.019 5.93774H167.756L167.414 8.03878Z" fill="#F25529"/>
<path d="M123.68 32.187C122.75 32.187 122.039 31.8711 121.548 31.2393C121.057 30.6009 120.811 29.6699 120.811 28.4463C120.811 27.2227 121.057 26.295 121.548 25.6632C122.039 25.0248 122.75 24.7056 123.68 24.7056C124.603 24.7056 125.31 25.0248 125.801 25.6632C126.299 26.295 126.548 27.2227 126.548 28.4463C126.548 29.6633 126.299 30.591 125.801 31.2294C125.31 31.8678 124.603 32.187 123.68 32.187ZM123.68 31.5186C124.367 31.5186 124.888 31.2593 125.242 30.7406C125.602 30.2152 125.782 29.4505 125.782 28.4463C125.782 27.4421 125.602 26.6807 125.242 26.162C124.888 25.6366 124.367 25.3739 123.68 25.3739C122.985 25.3739 122.461 25.6333 122.108 26.152C121.754 26.6707 121.577 27.4355 121.577 28.4463C121.577 29.4571 121.754 30.2219 122.108 30.7406C122.461 31.2593 122.985 31.5186 123.68 31.5186Z" fill="black"/>
<path d="M128.808 32.0573H128.1V26.7306H132.108V32.0573H131.391V27.349H128.808V32.0573Z" fill="black"/>
<path d="M137.56 31.6583C137.357 31.8246 137.109 31.9542 136.814 32.0473C136.526 32.1338 136.221 32.177 135.9 32.177C135.167 32.177 134.594 31.9343 134.181 31.4488C133.775 30.9567 133.572 30.2717 133.572 29.3939C133.572 28.5161 133.762 27.8312 134.142 27.3391C134.522 26.8469 135.049 26.6009 135.723 26.6009C136.378 26.6009 136.889 26.827 137.256 27.2792C137.623 27.7248 137.806 28.3532 137.806 29.1645C137.806 29.3241 137.796 29.4638 137.777 29.5835H134.289C134.315 30.2152 134.466 30.694 134.741 31.0199C135.023 31.3391 135.422 31.4987 135.94 31.4987C136.418 31.4987 136.866 31.359 137.285 31.0797L137.56 31.6583ZM135.704 27.2493C135.285 27.2493 134.957 27.3956 134.721 27.6882C134.492 27.9741 134.355 28.4031 134.309 28.975H137.099C137.092 28.4297 136.964 28.0074 136.716 27.7081C136.473 27.4022 136.136 27.2493 135.704 27.2493Z" fill="black"/>
<path d="M143.386 29.4338C143.386 30.2984 143.202 30.9733 142.836 31.4588C142.469 31.9443 141.955 32.187 141.293 32.187C141.025 32.187 140.773 32.1338 140.537 32.0274C140.308 31.921 140.108 31.7714 139.938 31.5785V34.1222H139.23V26.7306H139.889V27.4089C140.065 27.1429 140.282 26.9434 140.537 26.8104C140.799 26.6707 141.09 26.6009 141.411 26.6009C142.027 26.6009 142.508 26.8503 142.855 27.349C143.209 27.8478 143.386 28.5427 143.386 29.4338ZM142.649 29.4338C142.649 28.7356 142.528 28.2069 142.286 27.8478C142.05 27.482 141.699 27.2992 141.234 27.2992C140.979 27.2992 140.747 27.3524 140.537 27.4588C140.327 27.5585 140.128 27.7214 139.938 27.9475V30.9102C140.101 31.103 140.305 31.256 140.547 31.369C140.789 31.4754 141.038 31.5286 141.293 31.5286C141.739 31.5286 142.076 31.3524 142.305 30.9999C142.534 30.6475 142.649 30.1254 142.649 29.4338Z" fill="black"/>
<path d="M147.581 31.4089C147.24 31.9143 146.713 32.167 145.999 32.167C145.482 32.167 145.076 32.0274 144.781 31.7481C144.493 31.4688 144.349 31.0797 144.349 30.581C144.349 29.9492 144.604 29.4837 145.115 29.1845C145.632 28.8786 146.438 28.7223 147.531 28.7156V28.3465C147.531 28.0007 147.423 27.7381 147.207 27.5585C146.998 27.3723 146.69 27.2792 146.284 27.2792C145.858 27.2792 145.446 27.3756 145.046 27.5685L144.859 26.96C145.324 26.7206 145.825 26.6009 146.362 26.6009C146.926 26.6009 147.378 26.7439 147.718 27.0298C148.065 27.3158 148.239 27.7347 148.239 28.2867V32.0573H147.581V31.4089ZM147.531 29.3141C146.687 29.3208 146.064 29.4239 145.665 29.6234C145.265 29.8162 145.066 30.1188 145.066 30.5311C145.066 30.8503 145.157 31.093 145.341 31.2593C145.524 31.4255 145.796 31.5087 146.156 31.5087C146.438 31.5087 146.69 31.4555 146.913 31.3491C147.135 31.2427 147.342 31.0797 147.531 30.8603V29.3141Z" fill="black"/>
<path d="M154.624 31.4388V33.5336H154.054L153.917 32.0573H150.017V26.7306H150.724V31.4388H153.16V26.7306H153.868V31.4388H154.624Z" fill="black"/>
<path d="M156.667 30.8802L159.349 26.7306H160.057V32.0573H159.349V27.8977L156.667 32.0573H155.96V26.7306H156.667V30.8802Z" fill="black"/>
<path d="M163.711 32.187C163.017 32.187 162.48 31.9509 162.1 31.4787C161.727 30.9999 161.54 30.3083 161.54 29.4039C161.54 28.4862 161.727 27.7913 162.1 27.3191C162.473 26.8403 163.01 26.6009 163.711 26.6009C164.405 26.6009 164.939 26.8403 165.312 27.3191C165.686 27.7913 165.872 28.4829 165.872 29.3939C165.872 30.305 165.686 30.9999 165.312 31.4787C164.939 31.9509 164.405 32.187 163.711 32.187ZM163.711 31.5386C164.176 31.5386 164.53 31.359 164.772 30.9999C165.014 30.6342 165.136 30.0988 165.136 29.3939C165.136 28.689 165.014 28.157 164.772 27.7979C164.53 27.4322 164.176 27.2493 163.711 27.2493C163.24 27.2493 162.883 27.4322 162.64 27.7979C162.398 28.157 162.277 28.6923 162.277 29.4039C162.277 30.1022 162.398 30.6342 162.64 30.9999C162.883 31.359 163.24 31.5386 163.711 31.5386Z" fill="black"/>
<path d="M171.295 32.0573H170.588V29.6732H168.063V32.0573H167.356V26.7306H168.063V29.0249H170.588V26.7306H171.295V32.0573Z" fill="black"/>
<path d="M177.081 32.0573H176.374V29.6732H173.849V32.0573H173.142V26.7306H173.849V29.0249H176.374V26.7306H177.081V32.0573Z" fill="black"/>
<path d="M178.928 26.7306H179.635V28.6558H180.696C181.973 28.6558 182.612 29.2177 182.612 30.3416C182.612 30.9002 182.432 31.3258 182.072 31.6184C181.718 31.911 181.269 32.0573 180.726 32.0573H178.928V26.7306ZM184.135 26.7306V32.0573H183.427V26.7306H184.135ZM179.635 31.4388H180.696C181.056 31.4388 181.341 31.3491 181.551 31.1695C181.767 30.9833 181.875 30.7073 181.875 30.3416C181.875 29.6367 181.492 29.2842 180.726 29.2842H179.635V31.4388Z" fill="black"/>
<path d="M186.689 30.8802L189.371 26.7306H190.078V32.0573H189.371V27.8977L186.689 32.0573H185.981V26.7306H186.689V30.8802ZM188.133 25.8927C187.203 25.8927 186.682 25.4305 186.571 24.5061H187.101C187.154 24.7588 187.262 24.9483 187.425 25.0747C187.596 25.201 187.835 25.2642 188.143 25.2642C188.431 25.2642 188.663 25.201 188.84 25.0747C189.023 24.9417 189.141 24.7522 189.194 24.5061H189.695C189.642 24.9583 189.482 25.3041 189.213 25.5435C188.945 25.7763 188.585 25.8927 188.133 25.8927Z" fill="black"/>
<path d="M194.901 32.0573H194.194V26.7306H198.202V32.0573H197.485V27.349H194.901V32.0573Z" fill="black"/>
<path d="M202.76 31.4089C202.42 31.9143 201.892 32.167 201.179 32.167C200.661 32.167 200.255 32.0274 199.96 31.7481C199.672 31.4688 199.528 31.0797 199.528 30.581C199.528 29.9492 199.784 29.4837 200.294 29.1845C200.812 28.8786 201.617 28.7223 202.711 28.7156V28.3465C202.711 28.0007 202.603 27.7381 202.387 27.5585C202.177 27.3723 201.87 27.2792 201.464 27.2792C201.038 27.2792 200.625 27.3756 200.226 27.5685L200.039 26.96C200.504 26.7206 201.005 26.6009 201.542 26.6009C202.105 26.6009 202.557 26.7439 202.898 27.0298C203.245 27.3158 203.418 27.7347 203.418 28.2867V32.0573H202.76V31.4089ZM202.711 29.3141C201.866 29.3208 201.244 29.4239 200.845 29.6234C200.445 29.8162 200.245 30.1188 200.245 30.5311C200.245 30.8503 200.337 31.093 200.52 31.2593C200.704 31.4255 200.976 31.5087 201.336 31.5087C201.617 31.5087 201.87 31.4555 202.092 31.3491C202.315 31.2427 202.521 31.0797 202.711 30.8603V29.3141Z" fill="black"/>
<path d="M209.352 29.4338C209.352 30.2984 209.169 30.9733 208.802 31.4588C208.435 31.9443 207.921 32.187 207.259 32.187C206.991 32.187 206.739 32.1338 206.503 32.0274C206.274 31.921 206.074 31.7714 205.904 31.5785V34.1222H205.197V26.7306H205.855V27.4089C206.032 27.1429 206.248 26.9434 206.503 26.8104C206.765 26.6707 207.056 26.6009 207.377 26.6009C207.993 26.6009 208.474 26.8503 208.821 27.349C209.175 27.8478 209.352 28.5427 209.352 29.4338ZM208.615 29.4338C208.615 28.7356 208.494 28.2069 208.252 27.8478C208.016 27.482 207.666 27.2992 207.201 27.2992C206.945 27.2992 206.713 27.3524 206.503 27.4588C206.293 27.5585 206.094 27.7214 205.904 27.9475V30.9102C206.068 31.103 206.271 31.256 206.513 31.369C206.755 31.4754 207.004 31.5286 207.259 31.5286C207.705 31.5286 208.042 31.3524 208.271 30.9999C208.501 30.6475 208.615 30.1254 208.615 29.4338Z" fill="black"/>
<path d="M212.378 32.0573H211.67V27.349H210.207V26.7306H213.851V27.349H212.378V32.0573Z" fill="black"/>
<path d="M219.009 32.0573H218.301V29.6732H215.777V32.0573H215.069V26.7306H215.777V29.0249H218.301V26.7306H219.009V32.0573Z" fill="black"/>
<path d="M224.461 31.6583C224.258 31.8246 224.009 31.9542 223.714 32.0473C223.426 32.1338 223.121 32.177 222.801 32.177C222.067 32.177 221.494 31.9343 221.081 31.4488C220.675 30.9567 220.472 30.2717 220.472 29.3939C220.472 28.5161 220.662 27.8312 221.042 27.3391C221.422 26.8469 221.949 26.6009 222.624 26.6009C223.279 26.6009 223.789 26.827 224.156 27.2792C224.523 27.7248 224.706 28.3532 224.706 29.1645C224.706 29.3241 224.697 29.4638 224.677 29.5835H221.189C221.216 30.2152 221.366 30.694 221.641 31.0199C221.923 31.3391 222.322 31.4987 222.84 31.4987C223.318 31.4987 223.767 31.359 224.186 31.0797L224.461 31.6583ZM222.604 27.2493C222.185 27.2493 221.857 27.3956 221.622 27.6882C221.392 27.9741 221.255 28.4031 221.209 28.975H223.999C223.993 28.4297 223.865 28.0074 223.616 27.7081C223.374 27.4022 223.036 27.2493 222.604 27.2493Z" fill="black"/>
<path d="M230.286 29.4338C230.286 30.2984 230.103 30.9733 229.736 31.4588C229.369 31.9443 228.855 32.187 228.194 32.187C227.925 32.187 227.673 32.1338 227.437 32.0274C227.208 31.921 227.008 31.7714 226.838 31.5785V34.1222H226.131V26.7306H226.789V27.4089C226.966 27.1429 227.182 26.9434 227.437 26.8104C227.699 26.6707 227.991 26.6009 228.312 26.6009C228.927 26.6009 229.409 26.8503 229.756 27.349C230.109 27.8478 230.286 28.5427 230.286 29.4338ZM229.549 29.4338C229.549 28.7356 229.428 28.2069 229.186 27.8478C228.95 27.482 228.6 27.2992 228.135 27.2992C227.879 27.2992 227.647 27.3524 227.437 27.4588C227.228 27.5585 227.028 27.7214 226.838 27.9475V30.9102C227.002 31.103 227.205 31.256 227.447 31.369C227.689 31.4754 227.938 31.5286 228.194 31.5286C228.639 31.5286 228.976 31.3524 229.206 30.9999C229.435 30.6475 229.549 30.1254 229.549 29.4338Z" fill="black"/>
</svg>
