<svg width="123" height="24" viewBox="0 0 123 24" fill="none" xmlns="http://www.w3.org/2000/svg">
<g clip-path="url(#clip0_1_14)">
<path d="M22.2125 10.6185L19.837 8.243V4.8812C19.837 4.06461 19.1742 3.40179 18.3576 3.40179H14.9958L12.6203 1.02626C12.0423 0.448279 11.1037 0.448279 10.5258 1.02626L8.15023 3.40179H4.78842C3.97183 3.40179 3.30902 4.06461 3.30902 4.8812V8.243L0.933482 10.6185C0.355506 11.1965 0.355506 12.1351 0.933482 12.713L3.30902 15.0886V18.4504C3.30902 19.267 3.97183 19.9298 4.78842 19.9298H8.15023L10.5258 22.3053C11.1037 22.8833 12.0423 22.8833 12.6203 22.3053L14.9958 19.9298H18.3576C19.1742 19.9298 19.837 19.267 19.837 18.4504V15.0886L22.2125 12.713C22.7905 12.1351 22.7905 11.1965 22.2125 10.6185ZM21.2263 12.4002L18.9197 14.7068V17.9731C18.9197 18.5458 18.453 19.0124 17.8804 19.0124H14.614L12.3074 21.319C11.8991 21.7273 11.2416 21.7273 10.8386 21.319L8.53201 19.0124H5.26565C4.69298 19.0124 4.22635 18.5458 4.22635 17.9731V14.7068L1.91975 12.4002C1.51146 11.9919 1.51146 11.3344 1.91975 10.9314L4.22635 8.62478V5.35842C4.22635 4.78575 4.69298 4.31913 5.26565 4.31913H8.53201L10.8386 2.01253C11.2469 1.60423 11.9044 1.60423 12.3074 2.01253L14.614 4.31913H17.8804C18.453 4.31913 18.9197 4.78575 18.9197 5.35842V8.62478L21.2263 10.9314C21.6346 11.3397 21.6346 11.9972 21.2263 12.4002Z" fill="white" stroke="#008669" stroke-miterlimit="10"/>
<path d="M10.8148 3.24777L3.15792 10.9046C2.73903 11.3235 2.73903 12.0076 3.15792 12.4318L5.04032 14.3142C5.65011 13.5718 6.58866 12.7075 7.95141 12.0659C10.8678 10.6978 12.6335 11.9386 14.4417 9.807C15.5712 8.47606 15.3113 7.03908 15.0038 6.20658C14.8818 5.88843 14.6909 5.60209 14.4523 5.35818L12.3419 3.24777C11.9177 2.82887 11.2337 2.82887 10.8148 3.24777Z" fill="white"/>
<path d="M12.3358 20.083L19.9927 12.4261C20.4116 12.0072 20.4116 11.3232 19.9927 10.899L18.1103 9.0166C17.5005 9.75896 16.5619 10.6233 15.1992 11.2649C12.2828 12.6329 10.5171 11.3921 8.70889 13.5238C7.57945 14.8547 7.83927 16.2917 8.14682 17.1242C8.26878 17.4423 8.45967 17.7287 8.69828 17.9726L10.8087 20.083C11.2329 20.5019 11.9169 20.5019 12.3358 20.083Z" fill="white"/>
<path d="M22.2125 10.6185L21.0248 9.43077L19.837 8.243V4.8812C19.837 4.06461 19.1742 3.40179 18.3576 3.40179H14.9958L12.6203 1.02626C12.0423 0.448279 11.1037 0.448279 10.5258 1.02626L8.15023 3.40179H4.78842C3.97183 3.40179 3.30902 4.06461 3.30902 4.8812V8.243L0.933482 10.6185C0.355506 11.1965 0.355506 12.1351 0.933482 12.713L3.30902 15.0886V18.4504C3.30902 19.267 3.97183 19.9298 4.78842 19.9298H8.15023L10.5258 22.3053C11.1037 22.8833 12.0423 22.8833 12.6203 22.3053L14.9958 19.9298H18.3576C19.1742 19.9298 19.837 19.267 19.837 18.4504V15.0886L22.2125 12.713C22.7905 12.1351 22.7905 11.1965 22.2125 10.6185ZM21.2263 12.4002L18.9197 14.7068V17.9731C18.9197 18.5458 18.453 19.0124 17.8804 19.0124H14.614L12.3074 21.319C11.8991 21.7273 11.2416 21.7273 10.8386 21.319L8.53201 19.0124H5.26565C4.69298 19.0124 4.22635 18.5458 4.22635 17.9731V14.7068L1.91975 12.4002C1.51146 11.9919 1.51146 11.3344 1.91975 10.9314L4.22635 8.62478V5.35842C4.22635 4.78575 4.69298 4.31913 5.26565 4.31913H8.53201L10.8386 2.01253C11.2469 1.60423 11.9044 1.60423 12.3074 2.01253L14.614 4.31913H17.8804C18.453 4.31913 18.9197 4.78575 18.9197 5.35842V8.62478L21.2263 10.9314C21.6346 11.3397 21.6346 11.9972 21.2263 12.4002Z" fill="white"/>
<path d="M75.8288 19.9698H78.5331V13.978L83.3849 19.9698H86.6618L81.1578 13.1349L86.2217 7.92778H83.0561L78.5384 12.5781V3.3623H75.8341V19.9698H75.8288ZM62.0369 7.92778L66.6289 19.482L66.5122 19.8002C66.0032 21.1523 65.1813 21.4386 64.5079 21.4386C64.2587 21.4386 63.9617 21.4174 63.7231 21.3432V23.7877C63.9617 23.8831 64.4707 23.9998 65.1018 23.9998C67.3182 23.9998 68.4105 22.531 69.3491 20.1077L74.0577 7.92248H71.1891L68.1189 16.3906L64.9374 7.92248H62.0369V7.92778ZM57.1533 16.5285C57.1533 18.8298 58.1873 20.1819 60.4037 20.1819C61.0347 20.1819 61.5172 20.0653 61.7559 19.9698V17.5148C61.5544 17.5731 61.3529 17.6208 61.093 17.6208C60.356 17.6208 59.8735 17.133 59.8735 16.1732V3.3623H57.1586V16.5285H57.1533ZM45.2968 13.9462C45.2968 11.56 46.9353 10.2662 48.6162 10.2662C50.3024 10.2662 51.9356 11.56 51.9356 13.9462C51.9356 16.3323 50.2971 17.6261 48.6162 17.6261C46.93 17.6208 45.2968 16.327 45.2968 13.9462ZM42.4811 13.9462C42.4811 17.9337 45.2597 20.1872 48.1283 20.1872C50.085 20.1872 51.3417 19.1692 51.9037 18.326V19.9751H54.6186V7.92778H51.9037V9.56627C51.347 8.73377 50.0903 7.71568 48.1283 7.71568C45.2597 7.71568 42.4811 9.94805 42.4811 13.9462ZM27.0508 19.9698H29.8505V12.7213H37.7142V19.9698H40.5139V3.3623H37.7142V10.1602H29.8505V3.3623H27.0508V19.9698Z" fill="white"/>
</g>
<path d="M119.891 9.70389L119.891 5.11101M119.891 5.11101H115.298M119.891 5.11101L113.001 12.0003M111.47 5.111H109.786C108.5 5.111 107.857 5.111 107.366 5.3613C106.934 5.58147 106.582 5.93278 106.362 6.36488C106.112 6.85612 106.112 7.49918 106.112 8.78531V15.2153C106.112 16.5015 106.112 17.1445 106.362 17.6358C106.582 18.0679 106.934 18.4192 107.366 18.6394C107.857 18.8896 108.5 18.8896 109.786 18.8896H116.216C117.502 18.8896 118.146 18.8896 118.637 18.6394C119.069 18.4192 119.42 18.0679 119.64 17.6358C119.891 17.1445 119.891 16.5015 119.891 15.2153V13.5313" stroke="white" stroke-width="2" stroke-linecap="round" stroke-linejoin="round"/>
<defs>
<clipPath id="clip0_1_14">
<rect width="87" height="24" fill="white"/>
</clipPath>
</defs>
</svg>
