<svg width="103" height="20" viewBox="0 0 103 20" fill="none" xmlns="http://www.w3.org/2000/svg">
<path d="M18.837 8.82902L16.8855 6.8775V4.11575C16.8855 3.44491 16.341 2.9004 15.6702 2.9004H12.9084L10.9569 0.948882C10.4821 0.47407 9.71105 0.47407 9.23624 0.948882L7.28472 2.9004H4.52297C3.85214 2.9004 3.30763 3.44491 3.30763 4.11575V6.8775L1.35611 8.82902C0.881297 9.30383 0.881297 10.0749 1.35611 10.5497L3.30763 12.5012V15.2629C3.30763 15.9338 3.85214 16.4783 4.52297 16.4783H7.28472L9.23624 18.4298C9.71105 18.9046 10.4821 18.9046 10.9569 18.4298L12.9084 16.4783H15.6702C16.341 16.4783 16.8855 15.9338 16.8855 15.2629V12.5012L18.837 10.5497C19.3118 10.0749 19.3118 9.30383 18.837 8.82902ZM18.0268 10.2927L16.1319 12.1875V14.8709C16.1319 15.3413 15.7486 15.7247 15.2781 15.7247H12.5948L10.6999 17.6196C10.3645 17.955 9.82431 17.955 9.49325 17.6196L7.59836 15.7247H4.91502C4.44456 15.7247 4.06123 15.3413 4.06123 14.8709V12.1875L2.16634 10.2927C1.83092 9.95724 1.83092 9.41709 2.16634 9.08602L4.06123 7.19113V4.50779C4.06123 4.03734 4.44456 3.654 4.91502 3.654H7.59836L9.49325 1.75911C9.82867 1.42369 10.3688 1.42369 10.6999 1.75911L12.5948 3.654H15.2781C15.7486 3.654 16.1319 4.03734 16.1319 4.50779V7.19113L18.0268 9.08602C18.3622 9.42144 18.3622 9.96159 18.0268 10.2927Z" fill="white" stroke="#008669" stroke-miterlimit="10"/>
<path d="M9.47405 2.77372L3.18388 9.06389C2.83975 9.40802 2.83975 9.96995 3.18388 10.3184L4.73028 11.8648C5.23123 11.255 6.00226 10.545 7.12177 10.0179C9.51761 8.894 10.9682 9.91332 12.4536 8.16218C13.3814 7.06881 13.168 5.88831 12.9153 5.20441C12.8152 4.94305 12.6583 4.70782 12.4623 4.50744L10.7286 2.77372C10.3801 2.42959 9.81818 2.42959 9.47405 2.77372Z" fill="white"/>
<path d="M10.7246 16.6038L17.0148 10.3136C17.3589 9.96952 17.3589 9.40759 17.0148 9.0591L15.4683 7.5127C14.9674 8.12255 14.1964 8.83258 13.0769 9.35967C10.681 10.4835 9.23045 9.46422 7.74503 11.2154C6.81719 12.3087 7.03064 13.4892 7.28329 14.1731C7.38348 14.4345 7.5403 14.6697 7.73632 14.8701L9.47004 16.6038C9.81852 16.9479 10.3805 16.9479 10.7246 16.6038Z" fill="white"/>
<path d="M18.837 8.82902L17.8613 7.85326L16.8855 6.8775V4.11575C16.8855 3.44491 16.341 2.9004 15.6702 2.9004H12.9084L10.9569 0.948882C10.4821 0.47407 9.71105 0.47407 9.23624 0.948882L7.28472 2.9004H4.52297C3.85214 2.9004 3.30763 3.44491 3.30763 4.11575V6.8775L1.35611 8.82902C0.881297 9.30383 0.881297 10.0749 1.35611 10.5497L3.30763 12.5012V15.2629C3.30763 15.9338 3.85214 16.4783 4.52297 16.4783H7.28472L9.23624 18.4298C9.71105 18.9046 10.4821 18.9046 10.9569 18.4298L12.9084 16.4783H15.6702C16.341 16.4783 16.8855 15.9338 16.8855 15.2629V12.5012L18.837 10.5497C19.3118 10.0749 19.3118 9.30383 18.837 8.82902ZM18.0268 10.2927L16.1319 12.1875V14.8709C16.1319 15.3413 15.7486 15.7247 15.2781 15.7247H12.5948L10.6999 17.6196C10.3645 17.955 9.82431 17.955 9.49325 17.6196L7.59836 15.7247H4.91502C4.44456 15.7247 4.06123 15.3413 4.06123 14.8709V12.1875L2.16634 10.2927C1.83092 9.95724 1.83092 9.41709 2.16634 9.08602L4.06123 7.19113V4.50779C4.06123 4.03734 4.44456 3.654 4.91502 3.654H7.59836L9.49325 1.75911C9.82867 1.42369 10.3688 1.42369 10.6999 1.75911L12.5948 3.654H15.2781C15.7486 3.654 16.1319 4.03734 16.1319 4.50779V7.19113L18.0268 9.08602C18.3622 9.42144 18.3622 9.96159 18.0268 10.2927Z" fill="white"/>
<path d="M62.884 16.5114H65.1056V11.589L69.0914 16.5114H71.7835L67.2619 10.8964L71.4219 6.61874H68.8213L65.11 10.439V2.86816H62.8884V16.5114H62.884ZM51.5539 6.61874L55.3262 16.1106L55.2304 16.372C54.8122 17.4828 54.137 17.718 53.5838 17.718C53.3791 17.718 53.1351 17.7006 52.9391 17.6396V19.6478C53.1351 19.7262 53.5533 19.822 54.0717 19.822C55.8925 19.822 56.7899 18.6154 57.5609 16.6246L61.4291 6.61439H59.0724L56.5503 13.571L53.9366 6.61439H51.5539V6.61874ZM47.5419 13.6843C47.5419 15.5748 48.3914 16.6856 50.2122 16.6856C50.7306 16.6856 51.127 16.5898 51.323 16.5114V14.4945C51.1575 14.5424 50.9919 14.5816 50.7785 14.5816C50.173 14.5816 49.7766 14.1809 49.7766 13.3924V2.86816H47.5463V13.6843H47.5419ZM37.8017 11.5629C37.8017 9.60265 39.1478 8.53977 40.5286 8.53977C41.9139 8.53977 43.2555 9.60265 43.2555 11.5629C43.2555 13.5231 41.9095 14.586 40.5286 14.586C39.1434 14.5816 37.8017 13.5188 37.8017 11.5629ZM35.4887 11.5629C35.4887 14.8387 37.7713 16.69 40.1279 16.69C41.7353 16.69 42.7677 15.8536 43.2294 15.161V16.5157H45.4597V6.61874H43.2294V7.96477C42.772 7.28087 41.7396 6.4445 40.1279 6.4445C37.7713 6.4445 35.4887 8.27841 35.4887 11.5629ZM22.8125 16.5114H25.1125V10.5566H31.5726V16.5114H33.8726V2.86816H31.5726V8.45265H25.1125V2.86816H22.8125V16.5114Z" fill="white"/>
<path d="M101.391 7.70389L101.391 3.11101M101.391 3.11101H96.7977M101.391 3.11101L94.5013 10.0003M92.9703 3.111H91.2863C90.0002 3.111 89.3571 3.111 88.8659 3.3613C88.4338 3.58147 88.0824 3.93278 87.8623 4.36488C87.612 4.85612 87.612 5.49918 87.612 6.78531V13.2153C87.612 14.5015 87.612 15.1445 87.8623 15.6358C88.0824 16.0679 88.4338 16.4192 88.8659 16.6394C89.3571 16.8896 90.0002 16.8896 91.2863 16.8896H97.7163C99.0025 16.8896 99.6455 16.8896 100.137 16.6394C100.569 16.4192 100.92 16.0679 101.14 15.6358C101.391 15.1445 101.391 14.5015 101.391 13.2153V11.5313" stroke="white" stroke-width="2" stroke-linecap="round" stroke-linejoin="round"/>
</svg>
