<svg width="115" height="24" viewBox="0 0 115 24" fill="none" xmlns="http://www.w3.org/2000/svg">
<g clip-path="url(#clip0_0_20)">
<path d="M21.039 10.6832L18.7551 8.39931V5.16719C18.7551 4.3821 18.1179 3.74485 17.3328 3.74485H14.1007L11.8168 1.46095C11.2611 0.905269 10.3588 0.905269 9.80308 1.46095L7.51918 3.74485H4.28706C3.50197 3.74485 2.86472 4.3821 2.86472 5.16719V8.39931L0.580823 10.6832C0.0251424 11.2389 0.0251424 12.1412 0.580823 12.6969L2.86472 14.9808V18.2129C2.86472 18.998 3.50197 19.6353 4.28706 19.6353H7.51918L9.80308 21.9192C10.3588 22.4748 11.2611 22.4748 11.8168 21.9192L14.1007 19.6353H17.3328C18.1179 19.6353 18.7551 18.998 18.7551 18.2129V14.9808L21.039 12.6969C21.5947 12.1412 21.5947 11.2389 21.039 10.6832ZM20.0908 12.3961L17.8732 14.6138V17.7541C17.8732 18.3047 17.4246 18.7533 16.874 18.7533H13.7336L11.516 20.9709C11.1235 21.3635 10.4913 21.3635 10.1039 20.9709L7.88624 18.7533H4.74588C4.19529 18.7533 3.74667 18.3047 3.74667 17.7541V14.6138L1.52905 12.3961C1.1365 12.0036 1.1365 11.3714 1.52905 10.984L3.74667 8.76636V5.626C3.74667 5.07542 4.19529 4.6268 4.74588 4.6268H7.88624L10.1039 2.40918C10.4964 2.01663 11.1286 2.01663 11.516 2.40918L13.7336 4.6268H16.874C17.4246 4.6268 17.8732 5.07542 17.8732 5.626V8.76636L20.0908 10.984C20.4834 11.3765 20.4834 12.0087 20.0908 12.3961Z" fill="white" stroke="#008669" stroke-miterlimit="10"/>
<path d="M10.0815 3.59673L2.72002 10.9582C2.31728 11.361 2.31728 12.0186 2.72002 12.4264L4.52981 14.2362C5.11608 13.5225 6.01842 12.6915 7.3286 12.0747C10.1325 10.7594 11.8301 11.9523 13.5685 9.90294C14.6544 8.62335 14.4046 7.24179 14.1089 6.44141C13.9917 6.13553 13.8081 5.86024 13.5787 5.62573L11.5497 3.59673C11.1419 3.19399 10.4843 3.19399 10.0815 3.59673Z" fill="white"/>
<path d="M11.5429 19.7826L18.9044 12.4211C19.3072 12.0183 19.3072 11.3607 18.9044 10.9529L17.0947 9.14307C16.5084 9.85678 15.606 10.6878 14.2959 11.3046C11.492 12.6199 9.79434 11.427 8.05593 13.4764C6.97006 14.7559 7.21986 16.1375 7.51554 16.9379C7.63279 17.2438 7.81632 17.5191 8.04573 17.7536L10.0747 19.7826C10.4826 20.1853 11.1402 20.1853 11.5429 19.7826Z" fill="white"/>
<path d="M21.039 10.6832L19.8971 9.54126L18.7551 8.39931V5.16719C18.7551 4.3821 18.1179 3.74485 17.3328 3.74485H14.1007L11.8168 1.46095C11.2611 0.905269 10.3588 0.905269 9.80308 1.46095L7.51918 3.74485H4.28706C3.50197 3.74485 2.86472 4.3821 2.86472 5.16719V8.39931L0.580823 10.6832C0.0251424 11.2389 0.0251424 12.1412 0.580823 12.6969L2.86472 14.9808V18.2129C2.86472 18.998 3.50197 19.6353 4.28706 19.6353H7.51918L9.80308 21.9192C10.3588 22.4748 11.2611 22.4748 11.8168 21.9192L14.1007 19.6353H17.3328C18.1179 19.6353 18.7551 18.998 18.7551 18.2129V14.9808L21.039 12.6969C21.5947 12.1412 21.5947 11.2389 21.039 10.6832ZM20.0908 12.3961L17.8732 14.6138V17.7541C17.8732 18.3047 17.4246 18.7533 16.874 18.7533H13.7336L11.516 20.9709C11.1235 21.3635 10.4913 21.3635 10.1039 20.9709L7.88624 18.7533H4.74588C4.19529 18.7533 3.74667 18.3047 3.74667 17.7541V14.6138L1.52905 12.3961C1.1365 12.0036 1.1365 11.3714 1.52905 10.984L3.74667 8.76636V5.626C3.74667 5.07542 4.19529 4.6268 4.74588 4.6268H7.88624L10.1039 2.40918C10.4964 2.01663 11.1286 2.01663 11.516 2.40918L13.7336 4.6268H16.874C17.4246 4.6268 17.8732 5.07542 17.8732 5.626V8.76636L20.0908 10.984C20.4834 11.3765 20.4834 12.0087 20.0908 12.3961Z" fill="white"/>
<path d="M72.5839 19.6737H75.1838V13.913L79.8485 19.6737H82.9991L77.7074 13.1024L82.5759 8.09615H79.5324L75.1889 12.5671V3.70679H72.589V19.6737H72.5839ZM59.324 8.09615L63.7389 19.2047L63.6267 19.5105C63.1373 20.8105 62.3471 21.0858 61.6997 21.0858C61.4601 21.0858 61.1746 21.0654 60.9452 20.9941V23.3442C61.1746 23.436 61.664 23.5481 62.2706 23.5481C64.4016 23.5481 65.4518 22.136 66.3541 19.8062L70.8811 8.09106H68.1231L65.1714 16.2325L62.1126 8.09106H59.324V8.09615ZM54.6288 16.3651C54.6288 18.5776 55.6229 19.8776 57.7538 19.8776C58.3605 19.8776 58.8244 19.7654 59.0538 19.6737V17.3133C58.8601 17.3694 58.6664 17.4153 58.4166 17.4153C57.708 17.4153 57.244 16.9463 57.244 16.0235V3.70679H54.6339V16.3651H54.6288ZM43.2297 13.8824C43.2297 11.5883 44.8049 10.3444 46.421 10.3444C48.0422 10.3444 49.6124 11.5883 49.6124 13.8824C49.6124 16.1765 48.0371 17.4204 46.421 17.4204C44.7999 17.4153 43.2297 16.1714 43.2297 13.8824ZM40.5226 13.8824C40.5226 17.7161 43.194 19.8827 45.952 19.8827C47.8332 19.8827 49.0414 18.9039 49.5818 18.0933V19.6788H52.1919V8.09615H49.5818V9.67143C49.0465 8.87105 47.8383 7.89223 45.952 7.89223C43.194 7.89223 40.5226 10.0385 40.5226 13.8824ZM25.6875 19.6737H28.3792V12.7047H35.9396V19.6737H38.6313V3.70679H35.9396V10.2424H28.3792V3.70679H25.6875V19.6737Z" fill="white"/>
</g>
<path d="M112 9.66667L112 5.00001M112 5.00001H107.333M112 5.00001L105 12M103.444 5H101.733C100.427 5 99.7731 5 99.274 5.25432C98.835 5.47802 98.478 5.83498 98.2543 6.27402C98 6.77315 98 7.42654 98 8.73333V15.2667C98 16.5735 98 17.2269 98.2543 17.726C98.478 18.165 98.835 18.522 99.274 18.7457C99.7731 19 100.427 19 101.733 19H108.267C109.573 19 110.227 19 110.726 18.7457C111.165 18.522 111.522 18.165 111.746 17.726C112 17.2269 112 16.5735 112 15.2667V13.5556" stroke="white" stroke-width="2" stroke-linecap="round" stroke-linejoin="round"/>
<defs>
<clipPath id="clip0_0_20">
<rect width="83" height="24" fill="white"/>
</clipPath>
</defs>
</svg>
