<svg width="125" height="21" viewBox="0 0 125 21" fill="none" xmlns="http://www.w3.org/2000/svg">
<g clip-path="url(#clip0_10_101)">
<path fill-rule="evenodd" clip-rule="evenodd" d="M9.77917 11.4249C9.11522 11.9953 9.12667 13.5912 9.13811 15.4406V15.9648L9.14384 16.1665C9.14956 17.9122 9.17246 19.4101 9.58456 20.0784C9.7162 20.3031 9.97377 20.4644 10.3172 20.5624C10.403 20.5681 10.4889 20.5681 10.5805 20.5681C11.4219 20.5681 12.2403 20.4644 13.0245 20.2685C13.345 20.113 13.5797 19.9229 13.6598 19.727C13.7113 19.6002 13.7342 19.3698 13.7342 19.0644C13.7342 17.8546 13.3794 15.5385 13.2076 14.4208L13.1218 13.8389L13.1046 13.7237L13.0817 13.5509C12.9386 12.5599 12.6925 11.4883 10.901 11.2118C10.403 11.1311 10.0367 11.206 9.77917 11.4249ZM6.60253 18.9262C6.66549 19.3928 6.75707 19.7443 6.88299 19.9747C7.06615 20.0477 7.25312 20.1168 7.44391 20.1821C7.61562 20.0323 7.71865 19.6117 7.6843 18.5978C7.63279 17.1402 7.38667 15.2159 6.99746 15.2389C6.57964 15.262 6.41937 17.457 6.60253 18.9262ZM15.1136 15.3138C14.65 15.55 14.8274 18.2348 15.3139 19.0932C15.3655 19.1797 15.4685 19.1912 15.583 19.1739C15.9493 18.9511 16.2984 18.7053 16.6304 18.4364C16.6705 18.35 16.7048 18.2463 16.7277 18.1138C16.8193 17.6471 15.7261 15.02 15.1136 15.3138ZM0.426697 10.3937C0.426697 13.741 2.08084 16.7023 4.6107 18.5113C4.67938 18.4364 4.73089 18.229 4.77096 18.0562L4.78241 17.9871L4.83964 17.7451C5.04569 16.7714 5.08576 15.8208 4.97129 14.6974C4.9026 13.9657 4.78813 13.5336 4.6851 13.1533C4.57635 12.7443 4.48478 12.3871 4.49622 11.834C4.50195 11.3385 4.60497 10.9929 4.71372 10.6241C4.84537 10.2093 4.98846 9.73689 5.00563 8.91879C5.06287 7.32867 5.22313 6.93114 5.69819 6.47024C6.17326 6.00933 6.31635 5.81921 6.31635 5.47929C6.31635 5.14514 5.8699 4.37312 6.65404 3.56078C7.16345 3.04226 7.64996 2.8579 8.00483 2.8579C8.20516 2.8579 8.3597 2.91552 8.45127 3.0077C8.70312 3.27272 8.62871 3.78547 8.13075 4.4653C7.62707 5.14514 7.63851 5.44472 7.67286 5.60028C7.70147 5.75583 7.85601 5.969 8.14792 6.19945C8.37687 6.38382 8.63443 6.59122 8.80614 6.89081C9.12094 7.46118 9.3041 8.0085 9.56167 8.75747L9.63035 8.97064L9.66469 9.0513C9.91081 9.64471 10.5118 9.85788 11.5478 9.85788C12.6181 9.85788 13.7571 9.155 13.7571 8.61344C13.7571 8.07764 13.5396 8.0085 13.5396 7.5476C13.5396 7.08669 14.2265 5.75583 15.2682 5.75583C15.7947 5.75583 16.0695 6.14184 15.8119 6.67188C15.5658 7.19616 15.0564 7.95089 15.0564 8.28504C15.0564 8.89574 15.9664 8.42331 16.5388 7.95089C17.1226 7.47846 17.2543 7.34595 17.6492 6.64307C17.8953 6.20522 18.2445 6.12456 18.4734 6.23402C18.731 6.36653 18.8912 6.74102 18.6623 7.28258C18.4791 7.70315 17.9869 8.23895 17.466 8.80356C16.7735 9.55829 15.9893 10.4167 15.9893 10.964C15.9893 13.7583 17.5634 16.2011 17.7408 16.4661C17.9182 16.7311 18.0155 16.8233 18.0728 16.8463C19.5437 15.1179 20.4366 12.8826 20.4424 10.434V10.3476V10.1632C20.3222 4.75337 15.8863 0.403591 10.4374 0.403591C4.90833 0.403591 0.426697 4.87436 0.426697 10.3937Z" fill="#F14635"/>
<path fill-rule="evenodd" clip-rule="evenodd" d="M58.6705 7.31715C59.6588 7.31715 60.4277 7.67051 60.9771 8.37723C61.5266 9.08395 61.8014 10.0557 61.8014 11.2924V11.4077C61.8014 12.6137 61.5209 13.5778 60.96 14.2998C60.3991 15.0181 59.6416 15.3772 58.6877 15.3772C57.9474 15.3772 57.3407 15.116 56.8676 14.5937V18.5171H54.3606V7.46119H56.7016L56.776 8.18135C57.2568 7.60522 57.8883 7.31715 58.6705 7.31715ZM41.2191 7.31715C42.2417 7.31715 43.0506 7.55913 43.6459 8.04308C44.2411 8.52703 44.5464 9.18958 44.5617 10.0307V13.476C44.5693 14.1904 44.6819 14.7358 44.8994 15.1122V15.2332H42.3981C42.3104 15.0757 42.2302 14.8433 42.1577 14.5361C41.6998 15.0968 41.0569 15.3772 40.2289 15.3772C39.4733 15.3772 38.8304 15.1564 38.3 14.7147C37.7696 14.273 37.5044 13.716 37.5044 13.0439C37.5044 12.1989 37.8268 11.5613 38.4717 11.1311C39.1127 10.701 40.0476 10.4859 41.2763 10.4859H42.049V10.0768C42.049 9.36241 41.7304 9.00521 41.0931 9.00521C40.4979 9.00521 40.2002 9.28752 40.2002 9.85212H37.699C37.699 9.09931 38.0291 8.48862 38.6892 8.02003C39.3493 7.55145 40.1926 7.31715 41.2191 7.31715ZM49.3638 7.31715C50.4246 7.31715 51.2755 7.54953 51.9166 8.01427C52.5614 8.47902 52.8839 9.08971 52.8839 9.84636H50.3769C50.3769 9.22414 50.0373 8.91303 49.3581 8.91303C49.0948 8.91303 48.8735 8.98409 48.6942 9.1262C48.5186 9.26447 48.4309 9.43923 48.4309 9.65048C48.4309 9.86557 48.5396 10.0403 48.7571 10.1748C48.9746 10.3092 49.3219 10.4206 49.7988 10.5089C50.2758 10.5934 50.6955 10.6952 51.058 10.8143C52.2676 11.2176 52.8724 11.9396 52.8724 12.9805C52.8724 13.6872 52.5462 14.2634 51.8937 14.7089C51.2412 15.1544 50.3979 15.3772 49.3638 15.3772C48.677 15.3772 48.0626 15.2581 47.5208 15.02C46.9828 14.7819 46.563 14.4554 46.2616 14.0406C45.9602 13.6296 45.8094 13.1975 45.8094 12.7443H48.1447C48.1561 13.1015 48.2801 13.3627 48.5167 13.5278C48.7533 13.693 49.0586 13.7756 49.4325 13.7756C49.7721 13.7756 50.0278 13.7084 50.1995 13.5739C50.3712 13.4395 50.457 13.2647 50.457 13.0496C50.457 12.8461 50.3445 12.6809 50.1194 12.5542C49.898 12.4313 49.4764 12.3026 48.8544 12.1682C48.2286 12.0337 47.7135 11.8571 47.309 11.6381C46.9007 11.4192 46.5898 11.1542 46.3761 10.8431C46.1662 10.532 46.0613 10.1748 46.0613 9.77147C46.0613 9.06091 46.3646 8.47325 46.9713 8.00851C47.5819 7.54761 48.3794 7.31715 49.3638 7.31715ZM30.5616 4.18301V9.38546L34.1045 4.18301H37.327L33.3662 9.40274L37.0236 15.2332H33.9328L31.6319 11.3385L30.5616 12.4735V15.2332H27.9516V4.18301H30.5616ZM63.3467 7.46119H65.8537V15.2332H63.3467V7.46119ZM87.9242 7.46119V8.769L84.3469 13.3723H88.01V15.2389H81.1817V13.885L84.7475 9.33361H80.5464L82.2234 7.46119H87.9242ZM69.2078 15.1352C68.5209 15.1352 67.9657 14.5994 67.9657 13.9369C67.9657 13.2686 68.5209 12.7328 69.2078 12.7328C69.8889 12.7328 70.4441 13.2686 70.4441 13.9369C70.4441 14.5994 69.8889 15.1352 69.2078 15.1352ZM75.0173 4.18877V9.99616L75.2691 9.67352L77.1637 7.42662H80.1686L77.3468 10.5896L80.3575 15.1237H77.4842L75.727 12.2546L75.0173 12.9344V15.1237H72.5103V4.18877H75.0173ZM42.0433 11.7822H41.3164C40.4464 11.7822 40.0114 12.1605 40.0114 12.9171C40.0114 13.1361 40.0877 13.3147 40.2403 13.4529C40.3929 13.5912 40.5875 13.6603 40.8241 13.6603C41.137 13.6603 41.3965 13.595 41.6025 13.4645C41.8086 13.3339 41.9555 13.1879 42.0433 13.0266V11.7822ZM58.0466 9.18957C57.4552 9.18957 57.0602 9.39506 56.8618 9.80603V12.8653C57.0793 13.2955 57.48 13.5105 58.0638 13.5105C58.8613 13.5105 59.2715 12.8461 59.2944 11.5171V11.2579C59.2944 9.87901 58.8785 9.18957 58.0466 9.18957ZM64.6288 6.70646C63.942 6.70646 63.3868 6.14185 63.3868 5.44473C63.3868 4.74762 63.942 4.18301 64.6288 4.18301C65.31 4.18301 65.8652 4.74762 65.8652 5.44473C65.8652 6.14185 65.31 6.70646 64.6288 6.70646Z" fill="#F14635"/>
</g>
<path d="M121.643 8.03141L121.643 3.43852M121.643 3.43852H117.05M121.643 3.43852L114.753 10.3278M113.222 3.43852H111.538C110.252 3.43852 109.609 3.43852 109.118 3.68881C108.686 3.90898 108.334 4.26029 108.114 4.6924C107.864 5.18363 107.864 5.82669 107.864 7.11282V13.5429C107.864 14.829 107.864 15.472 108.114 15.9633C108.334 16.3954 108.686 16.7467 109.118 16.9669C109.609 17.2172 110.252 17.2172 111.538 17.2172H117.968C119.254 17.2172 119.897 17.2172 120.389 16.9669C120.821 16.7467 121.172 16.3954 121.392 15.9633C121.643 15.472 121.643 14.829 121.643 13.5429V11.8588" stroke="#F14635" stroke-width="2" stroke-linecap="round" stroke-linejoin="round"/>
<defs>
<clipPath id="clip0_10_101">
<rect width="88.752" height="20.4812" fill="white" transform="translate(0 0.0869141)"/>
</clipPath>
</defs>
</svg>
