<?xml version="1.0" encoding="utf-8"?>
<!-- Generator: Adobe Illustrator 26.3.1, SVG Export Plug-In . SVG Version: 6.00 Build 0)  -->
<svg version="1.1" id="Слой_1" xmlns="http://www.w3.org/2000/svg" xmlns:xlink="http://www.w3.org/1999/xlink" x="0px" y="0px"
	 viewBox="0 0 500 500" style="enable-background:new 0 0 500 500;" xml:space="preserve">
<style type="text/css">
	.st0{fill:#FFFFFF;}
</style>
<g>
	<g>
		<path class="st0" d="M147.96,417.28V148.33h178.46v46.88h-121.6v52.53h43.73c21.27,0,39.64,3.44,55.09,10.31
			c15.45,6.87,27.38,16.57,35.79,29.09c8.4,12.52,12.61,27.27,12.61,44.25c0,16.9-4.2,31.8-12.61,44.71
			c-8.4,12.92-20.33,23-35.79,30.27c-15.45,7.27-33.81,10.9-55.09,10.9H147.96z M204.83,371.58h43.73c10.16,0,18.73-1.86,25.74-5.58
			c7-3.72,12.32-8.67,15.96-14.84c3.63-6.17,5.45-12.93,5.45-20.29c0-10.68-4.05-19.72-12.15-27.12c-8.1-7.4-19.76-11.1-35-11.1
			h-43.73V371.58z"/>
	</g>
	<rect x="147.96" y="82.72" class="st0" width="178.46" height="46.88"/>
</g>
</svg>
